solid dice-IRL-webcam-cup
facet normal 0.9238795325112878 -0.3826834323650873 0.0
  outer loop
    vertex 138.55401980249184 63.25040728992283 0.0
    vertex 132.5599944522141 48.779549996074095 42.999999999999964
    vertex 132.5599944522141 48.779549996074095 0.0
  endloop
endfacet
facet normal 0.9238795325112878 -0.3826834323650873 0.0
  outer loop
    vertex 132.5599944522141 48.779549996074095 42.999999999999964
    vertex 138.55401980249184 63.25040728992283 0.0
    vertex 138.55401980249184 63.25040728992283 42.999999999999964
  endloop
endfacet
facet normal 0.0 0.0 -1.0
  outer loop
    vertex 80.59847022514779 138.7795499960741 0.0
    vertex 78.06231286598324 78.77954999607412 0.0
    vertex 65.06932751899656 136.7350995734182 0.0
  endloop
endfacet
facet normal 0.0 0.0 -1.0
  outer loop
    vertex 78.06231286598324 78.77954999607412 0.0
    vertex 80.59847022514779 138.7795499960741 0.0
    vertex 78.14873033239766 79.43595582200281 0.0
  endloop
endfacet
facet normal 0.0 0.0 -1.0
  outer loop
    vertex 78.14873033239766 79.43595582200281 0.0
    vertex 80.59847022514779 138.7795499960741 0.0
    vertex 78.40209352411647 80.04762867565638 0.0
  endloop
endfacet
facet normal 0.0 0.0 -1.0
  outer loop
    vertex 78.40209352411647 80.04762867565638 0.0
    vertex 80.59847022514779 138.7795499960741 0.0
    vertex 78.80513615832636 80.57288406289553 0.0
  endloop
endfacet
facet normal 0.0 0.0 -1.0
  outer loop
    vertex 78.80513615832636 80.57288406289553 0.0
    vertex 80.59847022514779 138.7795499960741 0.0
    vertex 79.06776385194597 80.7744053800005 0.0
  endloop
endfacet
facet normal 0.0 0.0 -1.0
  outer loop
    vertex 79.06776385194597 80.7744053800005 0.0
    vertex 80.59847022514779 138.7795499960741 0.0
    vertex 82.11582588693895 80.78464974117465 0.0
  endloop
endfacet
facet normal 0.0 0.0 -1.0
  outer loop
    vertex 82.11582588693895 80.78464974117465 0.0
    vertex 80.59847022514779 138.7795499960741 0.0
    vertex 96.12761293129907 136.7350995734182 0.0
  endloop
endfacet
facet normal 0.0 0.0 -1.0
  outer loop
    vertex 82.11582588693895 80.78464974117465 0.0
    vertex 96.12761293129907 136.7350995734182 0.0
    vertex 82.39180429196922 80.57288406289553 0.0
  endloop
endfacet
facet normal 0.0 0.0 -1.0
  outer loop
    vertex 82.39180429196922 80.57288406289553 0.0
    vertex 96.12761293129907 136.7350995734182 0.0
    vertex 82.79484692617912 80.0476286756564 0.0
  endloop
endfacet
facet normal 0.0 0.0 -1.0
  outer loop
    vertex 82.79484692617912 80.0476286756564 0.0
    vertex 96.12761293129907 136.7350995734182 0.0
    vertex 83.04821011789791 79.43595582200281 0.0
  endloop
endfacet
facet normal 0.0 0.0 -1.0
  outer loop
    vertex 83.04821011789791 79.43595582200281 0.0
    vertex 96.12761293129907 136.7350995734182 0.0
    vertex 83.13462758431234 78.77954999607412 0.0
  endloop
endfacet
facet normal 0.0 0.0 -1.0
  outer loop
    vertex 83.13462758431234 78.77954999607412 0.0
    vertex 96.12761293129907 136.7350995734182 0.0
    vertex 96.12761293129903 20.82400041873002 0.0
  endloop
endfacet
facet normal 0.0 0.0 -1.0
  outer loop
    vertex 96.12761293129903 20.82400041873002 0.0
    vertex 96.12761293129907 136.7350995734182 0.0
    vertex 110.59847022514778 26.818025769007804 0.0
  endloop
endfacet
facet normal 0.0 0.0 -1.0
  outer loop
    vertex 110.59847022514778 26.818025769007804 0.0
    vertex 96.12761293129907 136.7350995734182 0.0
    vertex 110.59847022514782 130.7410742231404 0.0
  endloop
endfacet
facet normal 0.0 0.0 -1.0
  outer loop
    vertex 110.59847022514778 26.818025769007804 0.0
    vertex 110.59847022514782 130.7410742231404 0.0
    vertex 123.02487709634062 36.35314312488125 0.0
  endloop
endfacet
facet normal 0.0 0.0 -1.0
  outer loop
    vertex 123.02487709634062 36.35314312488125 0.0
    vertex 110.59847022514782 130.7410742231404 0.0
    vertex 123.02487709634066 121.20595686726695 0.0
  endloop
endfacet
facet normal 0.0 0.0 -1.0
  outer loop
    vertex 123.02487709634062 36.35314312488125 0.0
    vertex 123.02487709634066 121.20595686726695 0.0
    vertex 132.5599944522141 48.779549996074095 0.0
  endloop
endfacet
facet normal 0.0 0.0 -1.0
  outer loop
    vertex 132.5599944522141 48.779549996074095 0.0
    vertex 123.02487709634066 121.20595686726695 0.0
    vertex 132.5599944522141 108.77954999607408 0.0
  endloop
endfacet
facet normal 0.0 0.0 -1.0
  outer loop
    vertex 132.5599944522141 48.779549996074095 0.0
    vertex 132.5599944522141 108.77954999607408 0.0
    vertex 138.5540198024919 94.30869270222534 0.0
  endloop
endfacet
facet normal 0.0 0.0 -1.0
  outer loop
    vertex 132.5599944522141 48.779549996074095 0.0
    vertex 138.5540198024919 94.30869270222534 0.0
    vertex 138.55401980249184 63.25040728992283 0.0
  endloop
endfacet
facet normal 0.0 0.0 -1.0
  outer loop
    vertex 138.55401980249184 63.25040728992283 0.0
    vertex 138.5540198024919 94.30869270222534 0.0
    vertex 140.59847022514776 78.77954999607411 0.0
  endloop
endfacet
facet normal 0.0 0.0 -1.0
  outer loop
    vertex 22.642920647803695 94.30869270222537 0.0
    vertex 22.642920647803695 63.250407289922876 0.0
    vertex 20.59847022514781 78.77954999607412 0.0
  endloop
endfacet
facet normal 0.0 0.0 -1.0
  outer loop
    vertex 22.642920647803695 63.250407289922876 0.0
    vertex 22.642920647803695 94.30869270222537 0.0
    vertex 28.636945998081465 108.77954999607412 0.0
  endloop
endfacet
facet normal 0.0 0.0 -1.0
  outer loop
    vertex 22.642920647803695 63.250407289922876 0.0
    vertex 28.636945998081465 108.77954999607412 0.0
    vertex 28.636945998081465 48.77954999607413 0.0
  endloop
endfacet
facet normal 0.0 0.0 -1.0
  outer loop
    vertex 28.636945998081465 48.77954999607413 0.0
    vertex 28.636945998081465 108.77954999607412 0.0
    vertex 38.172063353954925 121.20595686726698 0.0
  endloop
endfacet
facet normal 0.0 0.0 -1.0
  outer loop
    vertex 28.636945998081465 48.77954999607413 0.0
    vertex 38.172063353954925 121.20595686726698 0.0
    vertex 38.172063353954925 36.35314312488127 0.0
  endloop
endfacet
facet normal 0.0 0.0 -1.0
  outer loop
    vertex 38.172063353954925 36.35314312488127 0.0
    vertex 38.172063353954925 121.20595686726698 0.0
    vertex 50.5984702251478 130.74107422314043 0.0
  endloop
endfacet
facet normal 0.0 0.0 -1.0
  outer loop
    vertex 38.172063353954925 36.35314312488127 0.0
    vertex 50.5984702251478 130.74107422314043 0.0
    vertex 50.59847022514776 26.818025769007814 0.0
  endloop
endfacet
facet normal 0.0 0.0 -1.0
  outer loop
    vertex 50.59847022514776 26.818025769007814 0.0
    vertex 50.5984702251478 130.74107422314043 0.0
    vertex 65.06932751899652 20.824000418730034 0.0
  endloop
endfacet
facet normal 0.0 0.0 -1.0
  outer loop
    vertex 65.06932751899652 20.824000418730034 0.0
    vertex 50.5984702251478 130.74107422314043 0.0
    vertex 65.06932751899656 136.7350995734182 0.0
  endloop
endfacet
facet normal 0.0 0.0 -1.0
  outer loop
    vertex 65.06932751899652 20.824000418730034 0.0
    vertex 65.06932751899656 136.7350995734182 0.0
    vertex 80.59847022514779 18.779549996074127 0.0
  endloop
endfacet
facet normal 0.0 0.0 -1.0
  outer loop
    vertex 80.59847022514779 18.779549996074127 0.0
    vertex 65.06932751899656 136.7350995734182 0.0
    vertex 78.06231286598324 78.77954999607412 0.0
  endloop
endfacet
facet normal 0.0 0.0 -1.0
  outer loop
    vertex 80.59847022514779 18.779549996074127 0.0
    vertex 78.06231286598324 78.77954999607412 0.0
    vertex 78.14873033239766 78.12314417014542 0.0
  endloop
endfacet
facet normal 0.0 0.0 -1.0
  outer loop
    vertex 80.59847022514779 18.779549996074127 0.0
    vertex 78.14873033239766 78.12314417014542 0.0
    vertex 78.40209352411647 77.51147131649185 0.0
  endloop
endfacet
facet normal 0.0 0.0 -1.0
  outer loop
    vertex 80.59847022514779 18.779549996074127 0.0
    vertex 78.40209352411647 77.51147131649185 0.0
    vertex 78.80513615832636 76.98621592925271 0.0
  endloop
endfacet
facet normal 0.0 0.0 -1.0
  outer loop
    vertex 80.59847022514779 18.779549996074127 0.0
    vertex 78.80513615832636 76.98621592925271 0.0
    vertex 79.06776385194591 76.78469461214775 0.0
  endloop
endfacet
facet normal 0.0 0.0 -1.0
  outer loop
    vertex 80.59847022514779 18.779549996074127 0.0
    vertex 79.06776385194591 76.78469461214775 0.0
    vertex 82.11582588693899 76.77445025097362 0.0
  endloop
endfacet
facet normal 0.0 0.0 -1.0
  outer loop
    vertex 80.59847022514779 18.779549996074127 0.0
    vertex 82.11582588693899 76.77445025097362 0.0
    vertex 96.12761293129903 20.82400041873002 0.0
  endloop
endfacet
facet normal 0.0 0.0 -1.0
  outer loop
    vertex 96.12761293129903 20.82400041873002 0.0
    vertex 82.11582588693899 76.77445025097362 0.0
    vertex 82.39180429196922 76.98621592925271 0.0
  endloop
endfacet
facet normal 0.0 0.0 -1.0
  outer loop
    vertex 96.12761293129903 20.82400041873002 0.0
    vertex 82.39180429196922 76.98621592925271 0.0
    vertex 82.79484692617912 77.51147131649185 0.0
  endloop
endfacet
facet normal 0.0 0.0 -1.0
  outer loop
    vertex 96.12761293129903 20.82400041873002 0.0
    vertex 82.79484692617912 77.51147131649185 0.0
    vertex 83.04821011789791 78.12314417014542 0.0
  endloop
endfacet
facet normal 0.0 0.0 -1.0
  outer loop
    vertex 96.12761293129903 20.82400041873002 0.0
    vertex 83.04821011789791 78.12314417014542 0.0
    vertex 83.13462758431234 78.77954999607412 0.0
  endloop
endfacet
facet normal -0.9407137941386341 -0.3392013524697322 0.0
  outer loop
    vertex 132.12515960987744 105.40660918498169 42.999999999999964
    vertex 137.26102027819428 91.16322560091764 3.0
    vertex 137.26102027819428 91.16322560091764 42.999999999999964
  endloop
endfacet
facet normal -0.9407137941386341 -0.3392013524697322 0.0
  outer loop
    vertex 137.26102027819428 91.16322560091764 3.0
    vertex 132.12515960987744 105.40660918498169 42.999999999999964
    vertex 132.12515960987744 105.40660918498169 3.0
  endloop
endfacet
facet normal -0.08416870074896768 0.9964515190485841 0.0
  outer loop
    vertex 77.89483521844878 20.842598421534483 42.999999999999964
    vertex 92.98214582999134 22.116999943027604 3.0
    vertex 77.89483521844878 20.842598421534483 3.0
  endloop
endfacet
facet normal -0.08416870074896768 0.9964515190485841 0.0
  outer loop
    vertex 92.98214582999134 22.116999943027604 3.0
    vertex 77.89483521844878 20.842598421534483 42.999999999999964
    vertex 92.98214582999134 22.116999943027604 42.999999999999964
  endloop
endfacet
facet normal 0.8208679787611823 0.5711179925764301 0.0
  outer loop
    vertex 29.071780840418132 52.15249080716655 3.0
    vertex 37.71910023842403 39.72369730353072 42.999999999999964
    vertex 37.71910023842403 39.72369730353072 3.0
  endloop
endfacet
facet normal 0.8208679787611823 0.5711179925764301 0.0
  outer loop
    vertex 37.71910023842403 39.72369730353072 42.999999999999964
    vertex 29.071780840418132 52.15249080716655 3.0
    vertex 29.071780840418132 52.15249080716655 42.999999999999964
  endloop
endfacet
facet normal 0.5711179925764281 -0.8208679787611837 0.0
  outer loop
    vertex 53.97141103624021 130.30623938080376 42.999999999999964
    vertex 41.54261753260439 121.65891998279791 3.0
    vertex 53.97141103624021 130.30623938080376 3.0
  endloop
endfacet
facet normal 0.5711179925764281 -0.8208679787611837 0.0
  outer loop
    vertex 41.54261753260439 121.65891998279791 3.0
    vertex 53.97141103624021 130.30623938080376 42.999999999999964
    vertex 41.54261753260439 121.65891998279791 42.999999999999964
  endloop
endfacet
facet normal 0.6450813671796355 0.7641138853061449 0.0
  outer loop
    vertex 37.71910023842403 39.72369730353072 42.999999999999964
    vertex 49.28857783951572 29.95649561804347 3.0
    vertex 37.71910023842403 39.72369730353072 3.0
  endloop
endfacet
facet normal 0.6450813671796355 0.7641138853061449 0.0
  outer loop
    vertex 49.28857783951572 29.95649561804347 3.0
    vertex 37.71910023842403 39.72369730353072 42.999999999999964
    vertex 49.28857783951572 29.95649561804347 42.999999999999964
  endloop
endfacet
facet normal -0.8208679787611837 -0.5711179925764281 0.0
  outer loop
    vertex 123.4778402118716 117.8354026886175 42.999999999999964
    vertex 132.12515960987744 105.40660918498169 3.0
    vertex 132.12515960987744 105.40660918498169 42.999999999999964
  endloop
endfacet
facet normal -0.8208679787611837 -0.5711179925764281 0.0
  outer loop
    vertex 132.12515960987744 105.40660918498169 3.0
    vertex 123.4778402118716 117.8354026886175 42.999999999999964
    vertex 123.4778402118716 117.8354026886175 3.0
  endloop
endfacet
facet normal -0.9050366795101505 0.42533352647215705 0.0
  outer loop
    vertex 135.86151581671513 61.17285263557098 42.999999999999964
    vertex 129.42152460317843 47.469657610442056 3.0
    vertex 129.42152460317843 47.469657610442056 42.999999999999964
  endloop
endfacet
facet normal -0.9050366795101505 0.42533352647215705 0.0
  outer loop
    vertex 129.42152460317843 47.469657610442056 3.0
    vertex 135.86151581671513 61.17285263557098 42.999999999999964
    vertex 135.86151581671513 61.17285263557098 3.0
  endloop
endfacet
facet normal -0.5711179925764276 0.8208679787611841 0.0
  outer loop
    vertex 107.22552941405537 27.25286061134447 42.999999999999964
    vertex 119.65432291769119 35.900180009350315 3.0
    vertex 107.22552941405537 27.25286061134447 3.0
  endloop
endfacet
facet normal -0.5711179925764276 0.8208679787611841 0.0
  outer loop
    vertex 119.65432291769119 35.900180009350315 3.0
    vertex 107.22552941405537 27.25286061134447 42.999999999999964
    vertex 119.65432291769119 35.900180009350315 42.999999999999964
  endloop
endfacet
facet normal 0.33920135246973415 -0.9407137941386335 0.0
  outer loop
    vertex 68.21479462030429 135.44210004912065 42.999999999999964
    vertex 53.97141103624021 130.30623938080376 3.0
    vertex 68.21479462030429 135.44210004912065 3.0
  endloop
endfacet
facet normal 0.33920135246973415 -0.9407137941386335 0.0
  outer loop
    vertex 53.97141103624021 130.30623938080376 3.0
    vertex 68.21479462030429 135.44210004912065 42.999999999999964
    vertex 53.97141103624021 130.30623938080376 42.999999999999964
  endloop
endfacet
facet normal -0.9842827196493683 0.17659990883248883 0.0
  outer loop
    vertex 138.53542179968744 76.07591498937511 42.999999999999964
    vertex 135.86151581671513 61.17285263557098 3.0
    vertex 135.86151581671513 61.17285263557098 42.999999999999964
  endloop
endfacet
facet normal -0.9842827196493683 0.17659990883248883 0.0
  outer loop
    vertex 135.86151581671513 61.17285263557098 3.0
    vertex 138.53542179968744 76.07591498937511 42.999999999999964
    vertex 138.53542179968744 76.07591498937511 3.0
  endloop
endfacet
facet normal 0.42533352647215505 0.9050366795101515 0.0
  outer loop
    vertex 49.28857783951572 29.95649561804347 42.999999999999964
    vertex 62.9917728646447 23.516504404506772 3.0
    vertex 49.28857783951572 29.95649561804347 3.0
  endloop
endfacet
facet normal 0.42533352647215505 0.9050366795101515 0.0
  outer loop
    vertex 62.9917728646447 23.516504404506772 3.0
    vertex 49.28857783951572 29.95649561804347 42.999999999999964
    vertex 62.9917728646447 23.516504404506772 42.999999999999964
  endloop
endfacet
facet normal -0.6450813671796334 -0.7641138853061467 0.0
  outer loop
    vertex 123.4778402118716 117.8354026886175 42.999999999999964
    vertex 111.90836261077988 127.60260437410474 3.0
    vertex 123.4778402118716 117.8354026886175 3.0
  endloop
endfacet
facet normal -0.6450813671796334 -0.7641138853061467 0.0
  outer loop
    vertex 111.90836261077988 127.60260437410474 3.0
    vertex 123.4778402118716 117.8354026886175 42.999999999999964
    vertex 111.90836261077988 127.60260437410474 42.999999999999964
  endloop
endfacet
facet normal -0.4253335264721568 -0.9050366795101507 0.0
  outer loop
    vertex 111.90836261077988 127.60260437410474 42.999999999999964
    vertex 98.20516758565093 134.04259558764144 3.0
    vertex 111.90836261077988 127.60260437410474 3.0
  endloop
endfacet
facet normal -0.4253335264721568 -0.9050366795101507 0.0
  outer loop
    vertex 98.20516758565093 134.04259558764144 3.0
    vertex 111.90836261077988 127.60260437410474 42.999999999999964
    vertex 98.20516758565093 134.04259558764144 42.999999999999964
  endloop
endfacet
facet normal -0.764113885306147 0.645081367179633 0.0
  outer loop
    vertex 129.42152460317843 47.469657610442056 42.999999999999964
    vertex 119.65432291769119 35.900180009350315 3.0
    vertex 119.65432291769119 35.900180009350315 42.999999999999964
  endloop
endfacet
facet normal -0.764113885306147 0.645081367179633 0.0
  outer loop
    vertex 119.65432291769119 35.900180009350315 3.0
    vertex 129.42152460317843 47.469657610442056 42.999999999999964
    vertex 129.42152460317843 47.469657610442056 3.0
  endloop
endfacet
facet normal 0.08416870074896646 -0.9964515190485843 0.0
  outer loop
    vertex 83.30210523184681 136.71650157061376 42.999999999999964
    vertex 68.21479462030429 135.44210004912065 3.0
    vertex 83.30210523184681 136.71650157061376 3.0
  endloop
endfacet
facet normal 0.08416870074896646 -0.9964515190485843 0.0
  outer loop
    vertex 68.21479462030429 135.44210004912065 3.0
    vertex 83.30210523184681 136.71650157061376 42.999999999999964
    vertex 68.21479462030429 135.44210004912065 42.999999999999964
  endloop
endfacet
facet normal -0.9964515190485838 -0.08416870074897081 0.0
  outer loop
    vertex 137.26102027819428 91.16322560091764 42.999999999999964
    vertex 138.53542179968744 76.07591498937511 3.0
    vertex 138.53542179968744 76.07591498937511 42.999999999999964
  endloop
endfacet
facet normal -0.9964515190485838 -0.08416870074897081 0.0
  outer loop
    vertex 138.53542179968744 76.07591498937511 3.0
    vertex 137.26102027819428 91.16322560091764 42.999999999999964
    vertex 137.26102027819428 91.16322560091764 3.0
  endloop
endfacet
facet normal 0.940713794138634 0.33920135246973276 0.0
  outer loop
    vertex 23.9359201721013 66.39587439123056 3.0
    vertex 29.071780840418132 52.15249080716655 42.999999999999964
    vertex 29.071780840418132 52.15249080716655 3.0
  endloop
endfacet
facet normal 0.940713794138634 0.33920135246973276 0.0
  outer loop
    vertex 29.071780840418132 52.15249080716655 42.999999999999964
    vertex 23.9359201721013 66.39587439123056 3.0
    vertex 23.9359201721013 66.39587439123056 42.999999999999964
  endloop
endfacet
facet normal -0.3826834323650892 0.923879532511287 0.0
  outer loop
    vertex 50.5984702251478 130.74107422314043 42.999999999999964
    vertex 65.06932751899656 136.7350995734182 0.0
    vertex 50.5984702251478 130.74107422314043 0.0
  endloop
endfacet
facet normal -0.3826834323650892 0.923879532511287 0.0
  outer loop
    vertex 65.06932751899656 136.7350995734182 0.0
    vertex 50.5984702251478 130.74107422314043 42.999999999999964
    vertex 65.06932751899656 136.7350995734182 42.999999999999964
  endloop
endfacet
facet normal 0.3826834323650899 -0.9238795325112868 0.0
  outer loop
    vertex 110.59847022514778 26.818025769007804 42.999999999999964
    vertex 96.12761293129903 20.82400041873002 0.0
    vertex 110.59847022514778 26.818025769007804 0.0
  endloop
endfacet
facet normal 0.3826834323650899 -0.9238795325112868 0.0
  outer loop
    vertex 96.12761293129903 20.82400041873002 0.0
    vertex 110.59847022514778 26.818025769007804 42.999999999999964
    vertex 96.12761293129903 20.82400041873002 42.999999999999964
  endloop
endfacet
facet normal 0.996451519048584 0.08416870074897077 0.0
  outer loop
    vertex 22.661518650608134 81.48318500277311 3.0
    vertex 23.9359201721013 66.39587439123056 42.999999999999964
    vertex 23.9359201721013 66.39587439123056 3.0
  endloop
endfacet
facet normal 0.996451519048584 0.08416870074897077 0.0
  outer loop
    vertex 23.9359201721013 66.39587439123056 42.999999999999964
    vertex 22.661518650608134 81.48318500277311 3.0
    vertex 22.661518650608134 81.48318500277311 42.999999999999964
  endloop
endfacet
facet normal 0.9050366795101508 -0.4253335264721565 0.0
  outer loop
    vertex 31.775415847117152 110.08944238170619 3.0
    vertex 25.335424633580445 96.38624735657721 42.999999999999964
    vertex 25.335424633580445 96.38624735657721 3.0
  endloop
endfacet
facet normal 0.9050366795101508 -0.4253335264721565 0.0
  outer loop
    vertex 25.335424633580445 96.38624735657721 42.999999999999964
    vertex 31.775415847117152 110.08944238170619 3.0
    vertex 31.775415847117152 110.08944238170619 42.999999999999964
  endloop
endfacet
facet normal 0.17659990883248802 0.9842827196493684 0.0
  outer loop
    vertex 62.9917728646447 23.516504404506772 42.999999999999964
    vertex 77.89483521844878 20.842598421534483 3.0
    vertex 62.9917728646447 23.516504404506772 3.0
  endloop
endfacet
facet normal 0.17659990883248802 0.9842827196493684 0.0
  outer loop
    vertex 77.89483521844878 20.842598421534483 3.0
    vertex 62.9917728646447 23.516504404506772 42.999999999999964
    vertex 77.89483521844878 20.842598421534483 42.999999999999964
  endloop
endfacet
facet normal 0.6087614290087205 -0.7933533402912353 0.0
  outer loop
    vertex 123.02487709634062 36.35314312488125 42.999999999999964
    vertex 110.59847022514778 26.818025769007804 0.0
    vertex 123.02487709634062 36.35314312488125 0.0
  endloop
endfacet
facet normal 0.6087614290087205 -0.7933533402912353 0.0
  outer loop
    vertex 110.59847022514778 26.818025769007804 0.0
    vertex 123.02487709634062 36.35314312488125 42.999999999999964
    vertex 110.59847022514778 26.818025769007804 42.999999999999964
  endloop
endfacet
facet normal -0.3392013524697344 0.9407137941386333 0.0
  outer loop
    vertex 92.98214582999134 22.116999943027604 42.999999999999964
    vertex 107.22552941405537 27.25286061134447 3.0
    vertex 92.98214582999134 22.116999943027604 3.0
  endloop
endfacet
facet normal -0.3392013524697344 0.9407137941386333 0.0
  outer loop
    vertex 107.22552941405537 27.25286061134447 3.0
    vertex 92.98214582999134 22.116999943027604 42.999999999999964
    vertex 107.22552941405537 27.25286061134447 42.999999999999964
  endloop
endfacet
facet normal 0.9842827196493683 -0.17659990883248897 0.0
  outer loop
    vertex 25.335424633580445 96.38624735657721 3.0
    vertex 22.661518650608134 81.48318500277311 42.999999999999964
    vertex 22.661518650608134 81.48318500277311 3.0
  endloop
endfacet
facet normal 0.9842827196493683 -0.17659990883248897 0.0
  outer loop
    vertex 22.661518650608134 81.48318500277311 42.999999999999964
    vertex 25.335424633580445 96.38624735657721 3.0
    vertex 25.335424633580445 96.38624735657721 42.999999999999964
  endloop
endfacet
facet normal -0.17659990883248752 -0.9842827196493684 0.0
  outer loop
    vertex 98.20516758565093 134.04259558764144 42.999999999999964
    vertex 83.30210523184681 136.71650157061376 3.0
    vertex 98.20516758565093 134.04259558764144 3.0
  endloop
endfacet
facet normal -0.17659990883248752 -0.9842827196493684 0.0
  outer loop
    vertex 83.30210523184681 136.71650157061376 3.0
    vertex 98.20516758565093 134.04259558764144 42.999999999999964
    vertex 83.30210523184681 136.71650157061376 42.999999999999964
  endloop
endfacet
facet normal 0.764113885306147 -0.645081367179633 0.0
  outer loop
    vertex 41.54261753260439 121.65891998279791 3.0
    vertex 31.775415847117152 110.08944238170619 42.999999999999964
    vertex 31.775415847117152 110.08944238170619 3.0
  endloop
endfacet
facet normal 0.764113885306147 -0.645081367179633 0.0
  outer loop
    vertex 31.775415847117152 110.08944238170619 42.999999999999964
    vertex 41.54261753260439 121.65891998279791 3.0
    vertex 41.54261753260439 121.65891998279791 42.999999999999964
  endloop
endfacet
facet normal -0.608761429008721 -0.7933533402912349 -0.0
  outer loop
    vertex 50.59847022514776 26.818025769007814 42.999999999999964
    vertex 38.172063353954925 36.35314312488127 0.0
    vertex 50.59847022514776 26.818025769007814 0.0
  endloop
endfacet
facet normal -0.608761429008721 -0.7933533402912349 -0.0
  outer loop
    vertex 38.172063353954925 36.35314312488127 0.0
    vertex 50.59847022514776 26.818025769007814 42.999999999999964
    vertex 38.172063353954925 36.35314312488127 42.999999999999964
  endloop
endfacet
facet normal 0.38268343236509045 0.9238795325112865 0.0
  outer loop
    vertex 96.12761293129907 136.7350995734182 42.999999999999964
    vertex 110.59847022514782 130.7410742231404 0.0
    vertex 96.12761293129907 136.7350995734182 0.0
  endloop
endfacet
facet normal 0.38268343236509045 0.9238795325112865 0.0
  outer loop
    vertex 110.59847022514782 130.7410742231404 0.0
    vertex 96.12761293129907 136.7350995734182 42.999999999999964
    vertex 110.59847022514782 130.7410742231404 42.999999999999964
  endloop
endfacet
facet normal 0.9914448613738106 0.13052619222005044 0.0
  outer loop
    vertex 138.5540198024919 94.30869270222534 0.0
    vertex 140.59847022514776 78.77954999607411 42.999999999999964
    vertex 140.59847022514776 78.77954999607411 0.0
  endloop
endfacet
facet normal 0.9914448613738106 0.13052619222005044 0.0
  outer loop
    vertex 140.59847022514776 78.77954999607411 42.999999999999964
    vertex 138.5540198024919 94.30869270222534 0.0
    vertex 138.5540198024919 94.30869270222534 42.999999999999964
  endloop
endfacet
facet normal -0.9914448613738106 -0.1305261922200504 -0.0
  outer loop
    vertex 20.59847022514781 78.77954999607412 42.999999999999964
    vertex 22.642920647803695 63.250407289922876 0.0
    vertex 22.642920647803695 63.250407289922876 42.999999999999964
  endloop
endfacet
facet normal -0.9914448613738106 -0.1305261922200504 -0.0
  outer loop
    vertex 22.642920647803695 63.250407289922876 0.0
    vertex 20.59847022514781 78.77954999607412 42.999999999999964
    vertex 20.59847022514781 78.77954999607412 0.0
  endloop
endfacet
facet normal 0.13052619222005116 -0.9914448613738106 0.0
  outer loop
    vertex 96.12761293129903 20.82400041873002 42.999999999999964
    vertex 80.59847022514779 18.779549996074127 0.0
    vertex 96.12761293129903 20.82400041873002 0.0
  endloop
endfacet
facet normal 0.13052619222005116 -0.9914448613738106 0.0
  outer loop
    vertex 80.59847022514779 18.779549996074127 0.0
    vertex 96.12761293129903 20.82400041873002 42.999999999999964
    vertex 80.59847022514779 18.779549996074127 42.999999999999964
  endloop
endfacet
facet normal -0.9238795325112868 -0.38268343236508945 -0.0
  outer loop
    vertex 22.642920647803695 63.250407289922876 42.999999999999964
    vertex 28.636945998081465 48.77954999607413 0.0
    vertex 28.636945998081465 48.77954999607413 42.999999999999964
  endloop
endfacet
facet normal -0.9238795325112868 -0.38268343236508945 -0.0
  outer loop
    vertex 28.636945998081465 48.77954999607413 0.0
    vertex 22.642920647803695 63.250407289922876 42.999999999999964
    vertex 22.642920647803695 63.250407289922876 0.0
  endloop
endfacet
facet normal -0.6087614290087197 0.7933533402912362 0.0
  outer loop
    vertex 38.172063353954925 121.20595686726698 42.999999999999964
    vertex 50.5984702251478 130.74107422314043 0.0
    vertex 38.172063353954925 121.20595686726698 0.0
  endloop
endfacet
facet normal -0.6087614290087197 0.7933533402912362 0.0
  outer loop
    vertex 50.5984702251478 130.74107422314043 0.0
    vertex 38.172063353954925 121.20595686726698 42.999999999999964
    vertex 50.5984702251478 130.74107422314043 42.999999999999964
  endloop
endfacet
facet normal 0.923879532511287 0.3826834323650898 0.0
  outer loop
    vertex 132.5599944522141 108.77954999607408 0.0
    vertex 138.5540198024919 94.30869270222534 42.999999999999964
    vertex 138.5540198024919 94.30869270222534 0.0
  endloop
endfacet
facet normal 0.923879532511287 0.3826834323650898 0.0
  outer loop
    vertex 138.5540198024919 94.30869270222534 42.999999999999964
    vertex 132.5599944522141 108.77954999607408 0.0
    vertex 132.5599944522141 108.77954999607408 42.999999999999964
  endloop
endfacet
facet normal 0.608761429008721 0.7933533402912349 0.0
  outer loop
    vertex 110.59847022514782 130.7410742231404 42.999999999999964
    vertex 123.02487709634066 121.20595686726695 0.0
    vertex 110.59847022514782 130.7410742231404 0.0
  endloop
endfacet
facet normal 0.608761429008721 0.7933533402912349 0.0
  outer loop
    vertex 123.02487709634066 121.20595686726695 0.0
    vertex 110.59847022514782 130.7410742231404 42.999999999999964
    vertex 123.02487709634066 121.20595686726695 42.999999999999964
  endloop
endfacet
facet normal -0.9238795325112868 0.38268343236508945 0.0
  outer loop
    vertex 28.636945998081465 108.77954999607412 42.999999999999964
    vertex 22.642920647803695 94.30869270222537 0.0
    vertex 22.642920647803695 94.30869270222537 42.999999999999964
  endloop
endfacet
facet normal -0.9238795325112868 0.38268343236508945 0.0
  outer loop
    vertex 22.642920647803695 94.30869270222537 0.0
    vertex 28.636945998081465 108.77954999607412 42.999999999999964
    vertex 28.636945998081465 108.77954999607412 0.0
  endloop
endfacet
facet normal 0.1305261922200515 0.9914448613738105 0.0
  outer loop
    vertex 80.59847022514779 138.7795499960741 42.999999999999964
    vertex 96.12761293129907 136.7350995734182 0.0
    vertex 80.59847022514779 138.7795499960741 0.0
  endloop
endfacet
facet normal 0.1305261922200515 0.9914448613738105 0.0
  outer loop
    vertex 96.12761293129907 136.7350995734182 0.0
    vertex 80.59847022514779 138.7795499960741 42.999999999999964
    vertex 96.12761293129907 136.7350995734182 42.999999999999964
  endloop
endfacet
facet normal -0.3826834323650899 -0.9238795325112868 -0.0
  outer loop
    vertex 65.06932751899652 20.824000418730034 42.999999999999964
    vertex 50.59847022514776 26.818025769007814 0.0
    vertex 65.06932751899652 20.824000418730034 0.0
  endloop
endfacet
facet normal -0.3826834323650899 -0.9238795325112868 -0.0
  outer loop
    vertex 50.59847022514776 26.818025769007814 0.0
    vertex 65.06932751899652 20.824000418730034 42.999999999999964
    vertex 50.59847022514776 26.818025769007814 42.999999999999964
  endloop
endfacet
facet normal -0.7933533402912356 0.6087614290087203 0.0
  outer loop
    vertex 38.172063353954925 121.20595686726698 42.999999999999964
    vertex 28.636945998081465 108.77954999607412 0.0
    vertex 28.636945998081465 108.77954999607412 42.999999999999964
  endloop
endfacet
facet normal -0.7933533402912356 0.6087614290087203 0.0
  outer loop
    vertex 28.636945998081465 108.77954999607412 0.0
    vertex 38.172063353954925 121.20595686726698 42.999999999999964
    vertex 38.172063353954925 121.20595686726698 0.0
  endloop
endfacet
facet normal -0.1305261922200515 -0.9914448613738105 -0.0
  outer loop
    vertex 80.59847022514779 18.779549996074127 42.999999999999964
    vertex 65.06932751899652 20.824000418730034 0.0
    vertex 80.59847022514779 18.779549996074127 0.0
  endloop
endfacet
facet normal -0.1305261922200515 -0.9914448613738105 -0.0
  outer loop
    vertex 65.06932751899652 20.824000418730034 0.0
    vertex 80.59847022514779 18.779549996074127 42.999999999999964
    vertex 65.06932751899652 20.824000418730034 42.999999999999964
  endloop
endfacet
facet normal -0.9914448613738106 0.13052619222005027 0.0
  outer loop
    vertex 22.642920647803695 94.30869270222537 42.999999999999964
    vertex 20.59847022514781 78.77954999607412 0.0
    vertex 20.59847022514781 78.77954999607412 42.999999999999964
  endloop
endfacet
facet normal -0.9914448613738106 0.13052619222005027 0.0
  outer loop
    vertex 20.59847022514781 78.77954999607412 0.0
    vertex 22.642920647803695 94.30869270222537 42.999999999999964
    vertex 22.642920647803695 94.30869270222537 0.0
  endloop
endfacet
facet normal 0.7933533402912362 0.6087614290087197 0.0
  outer loop
    vertex 123.02487709634066 121.20595686726695 0.0
    vertex 132.5599944522141 108.77954999607408 42.999999999999964
    vertex 132.5599944522141 108.77954999607408 0.0
  endloop
endfacet
facet normal 0.7933533402912362 0.6087614290087197 0.0
  outer loop
    vertex 132.5599944522141 108.77954999607408 42.999999999999964
    vertex 123.02487709634066 121.20595686726695 0.0
    vertex 123.02487709634066 121.20595686726695 42.999999999999964
  endloop
endfacet
facet normal 0.9914448613738104 -0.13052619222005293 0.0
  outer loop
    vertex 140.59847022514776 78.77954999607411 0.0
    vertex 138.55401980249184 63.25040728992283 42.999999999999964
    vertex 138.55401980249184 63.25040728992283 0.0
  endloop
endfacet
facet normal 0.9914448613738104 -0.13052619222005293 0.0
  outer loop
    vertex 138.55401980249184 63.25040728992283 42.999999999999964
    vertex 140.59847022514776 78.77954999607411 0.0
    vertex 140.59847022514776 78.77954999607411 42.999999999999964
  endloop
endfacet
facet normal 0.0 0.0 1.0
  outer loop
    vertex 79.33039154556552 76.58317329504277 3.0
    vertex 82.11582588693899 76.77445025097362 3.0
    vertex 79.06776385194591 76.78469461214775 3.0
  endloop
endfacet
facet normal 0.0 0.0 1.0
  outer loop
    vertex 82.11582588693899 76.77445025097362 3.0
    vertex 79.33039154556552 76.58317329504277 3.0
    vertex 79.94206439921909 76.32981010332402 3.0
  endloop
endfacet
facet normal 0.0 0.0 1.0
  outer loop
    vertex 82.11582588693899 76.77445025097362 3.0
    vertex 79.94206439921909 76.32981010332402 3.0
    vertex 80.59847022514779 76.24339263690959 3.0
  endloop
endfacet
facet normal 0.0 0.0 1.0
  outer loop
    vertex 82.11582588693899 76.77445025097362 3.0
    vertex 80.59847022514779 76.24339263690959 3.0
    vertex 81.25487605107648 76.32981010332402 3.0
  endloop
endfacet
facet normal 0.0 0.0 1.0
  outer loop
    vertex 82.11582588693899 76.77445025097362 3.0
    vertex 81.25487605107648 76.32981010332402 3.0
    vertex 81.86654890473007 76.58317329504277 3.0
  endloop
endfacet
facet normal 0.003360923497360991 -0.9999943520806731 0.0
  outer loop
    vertex 82.11582588693895 80.78464974117465 3.0
    vertex 79.06776385194597 80.7744053800005 0.0
    vertex 82.11582588693895 80.78464974117465 0.0
  endloop
endfacet
facet normal 0.003360923497360991 -0.9999943520806731 0.0
  outer loop
    vertex 79.06776385194597 80.7744053800005 0.0
    vertex 82.11582588693895 80.78464974117465 3.0
    vertex 79.06776385194597 80.7744053800005 3.0
  endloop
endfacet
facet normal 0.7933533402912671 -0.6087614290086789 0.0
  outer loop
    vertex 78.80513615832636 80.57288406289553 0.0
    vertex 78.40209352411647 80.04762867565638 3.0
    vertex 78.40209352411647 80.04762867565638 0.0
  endloop
endfacet
facet normal 0.7933533402912671 -0.6087614290086789 0.0
  outer loop
    vertex 78.40209352411647 80.04762867565638 3.0
    vertex 78.80513615832636 80.57288406289553 0.0
    vertex 78.80513615832636 80.57288406289553 3.0
  endloop
endfacet
facet normal 0.7933533402912609 0.6087614290086871 0.0
  outer loop
    vertex 78.40209352411647 77.51147131649185 0.0
    vertex 78.80513615832636 76.98621592925271 3.0
    vertex 78.80513615832636 76.98621592925271 0.0
  endloop
endfacet
facet normal 0.7933533402912609 0.6087614290086871 0.0
  outer loop
    vertex 78.80513615832636 76.98621592925271 3.0
    vertex 78.40209352411647 77.51147131649185 0.0
    vertex 78.40209352411647 77.51147131649185 3.0
  endloop
endfacet
facet normal -0.6087614290087179 -0.7933533402912375 -0.0
  outer loop
    vertex 82.39180429196922 80.57288406289553 3.0
    vertex 82.11582588693895 80.78464974117465 0.0
    vertex 82.39180429196922 80.57288406289553 0.0
  endloop
endfacet
facet normal -0.6087614290087179 -0.7933533402912375 -0.0
  outer loop
    vertex 82.11582588693895 80.78464974117465 0.0
    vertex 82.39180429196922 80.57288406289553 3.0
    vertex 82.11582588693895 80.78464974117465 3.0
  endloop
endfacet
facet normal -0.7933533402912356 -0.6087614290087201 -0.0
  outer loop
    vertex 28.636945998081465 48.77954999607413 42.999999999999964
    vertex 38.172063353954925 36.35314312488127 0.0
    vertex 38.172063353954925 36.35314312488127 42.999999999999964
  endloop
endfacet
facet normal -0.7933533402912356 -0.6087614290087201 -0.0
  outer loop
    vertex 38.172063353954925 36.35314312488127 0.0
    vertex 28.636945998081465 48.77954999607413 42.999999999999964
    vertex 28.636945998081465 48.77954999607413 0.0
  endloop
endfacet
facet normal -0.13052619222005188 0.9914448613738104 0.0
  outer loop
    vertex 65.06932751899656 136.7350995734182 42.999999999999964
    vertex 80.59847022514779 138.7795499960741 0.0
    vertex 65.06932751899656 136.7350995734182 0.0
  endloop
endfacet
facet normal -0.13052619222005188 0.9914448613738104 0.0
  outer loop
    vertex 80.59847022514779 138.7795499960741 0.0
    vertex 65.06932751899656 136.7350995734182 42.999999999999964
    vertex 80.59847022514779 138.7795499960741 42.999999999999964
  endloop
endfacet
facet normal 0.0 0.0 1.0
  outer loop
    vertex 77.70069274628058 78.00309286076656 3.0
    vertex 77.70069274628058 79.55600713138168 3.0
    vertex 77.59847022514779 78.77954999607412 3.0
  endloop
endfacet
facet normal 0.0 0.0 1.0
  outer loop
    vertex 77.70069274628058 79.55600713138168 3.0
    vertex 77.70069274628058 78.00309286076656 3.0
    vertex 78.00039401379449 77.27954999607412 3.0
  endloop
endfacet
facet normal 0.0 0.0 1.0
  outer loop
    vertex 77.70069274628058 79.55600713138168 3.0
    vertex 78.00039401379449 77.27954999607412 3.0
    vertex 78.00039401379449 80.27954999607411 3.0
  endloop
endfacet
facet normal 0.0 0.0 1.0
  outer loop
    vertex 78.00039401379449 80.27954999607411 3.0
    vertex 78.00039401379449 77.27954999607412 3.0
    vertex 78.06231286598324 78.77954999607412 3.0
  endloop
endfacet
facet normal 0.0 0.0 1.0
  outer loop
    vertex 78.06231286598324 78.77954999607412 3.0
    vertex 78.00039401379449 77.27954999607412 3.0
    vertex 78.14873033239766 78.12314417014542 3.0
  endloop
endfacet
facet normal 0.0 0.0 1.0
  outer loop
    vertex 78.14873033239766 78.12314417014542 3.0
    vertex 78.00039401379449 77.27954999607412 3.0
    vertex 78.47714988158815 76.65822965251448 3.0
  endloop
endfacet
facet normal 0.0 0.0 1.0
  outer loop
    vertex 78.14873033239766 78.12314417014542 3.0
    vertex 78.47714988158815 76.65822965251448 3.0
    vertex 78.40209352411647 77.51147131649185 3.0
  endloop
endfacet
facet normal 0.0 0.0 1.0
  outer loop
    vertex 78.40209352411647 77.51147131649185 3.0
    vertex 78.47714988158815 76.65822965251448 3.0
    vertex 78.80513615832636 76.98621592925271 3.0
  endloop
endfacet
facet normal 0.0 0.0 1.0
  outer loop
    vertex 78.80513615832636 76.98621592925271 3.0
    vertex 78.47714988158815 76.65822965251448 3.0
    vertex 79.09847022514782 76.18147378472081 3.0
  endloop
endfacet
facet normal 0.0 0.0 1.0
  outer loop
    vertex 78.80513615832636 76.98621592925271 3.0
    vertex 79.09847022514782 76.18147378472081 3.0
    vertex 79.06776385194591 76.78469461214775 3.0
  endloop
endfacet
facet normal 0.0 0.0 1.0
  outer loop
    vertex 79.06776385194591 76.78469461214775 3.0
    vertex 79.09847022514782 76.18147378472081 3.0
    vertex 79.33039154556552 76.58317329504277 3.0
  endloop
endfacet
facet normal 0.0 0.0 1.0
  outer loop
    vertex 79.33039154556552 76.58317329504277 3.0
    vertex 79.09847022514782 76.18147378472081 3.0
    vertex 79.82201308984024 75.88177251720691 3.0
  endloop
endfacet
facet normal 0.0 0.0 1.0
  outer loop
    vertex 79.33039154556552 76.58317329504277 3.0
    vertex 79.82201308984024 75.88177251720691 3.0
    vertex 79.94206439921909 76.32981010332402 3.0
  endloop
endfacet
facet normal 0.0 0.0 1.0
  outer loop
    vertex 79.94206439921909 76.32981010332402 3.0
    vertex 79.82201308984024 75.88177251720691 3.0
    vertex 80.59847022514779 75.77954999607412 3.0
  endloop
endfacet
facet normal 0.0 0.0 1.0
  outer loop
    vertex 79.94206439921909 76.32981010332402 3.0
    vertex 80.59847022514779 75.77954999607412 3.0
    vertex 80.59847022514779 76.24339263690959 3.0
  endloop
endfacet
facet normal 0.0 0.0 1.0
  outer loop
    vertex 80.59847022514779 76.24339263690959 3.0
    vertex 80.59847022514779 75.77954999607412 3.0
    vertex 81.37492736045535 75.88177251720693 3.0
  endloop
endfacet
facet normal 0.0 0.0 1.0
  outer loop
    vertex 80.59847022514779 76.24339263690959 3.0
    vertex 81.37492736045535 75.88177251720693 3.0
    vertex 81.25487605107648 76.32981010332402 3.0
  endloop
endfacet
facet normal 0.0 0.0 1.0
  outer loop
    vertex 81.25487605107648 76.32981010332402 3.0
    vertex 81.37492736045535 75.88177251720693 3.0
    vertex 81.86654890473007 76.58317329504277 3.0
  endloop
endfacet
facet normal 0.0 0.0 1.0
  outer loop
    vertex 81.86654890473007 76.58317329504277 3.0
    vertex 81.37492736045535 75.88177251720693 3.0
    vertex 82.0984702251478 76.18147378472081 3.0
  endloop
endfacet
facet normal 0.0 0.0 1.0
  outer loop
    vertex 81.86654890473007 76.58317329504277 3.0
    vertex 82.0984702251478 76.18147378472081 3.0
    vertex 82.11582588693899 76.77445025097362 3.0
  endloop
endfacet
facet normal 0.0 0.0 1.0
  outer loop
    vertex 82.11582588693899 76.77445025097362 3.0
    vertex 82.0984702251478 76.18147378472081 3.0
    vertex 82.71979056870744 76.65822965251448 3.0
  endloop
endfacet
facet normal 0.0 0.0 1.0
  outer loop
    vertex 82.11582588693899 76.77445025097362 3.0
    vertex 82.71979056870744 76.65822965251448 3.0
    vertex 82.39180429196922 76.98621592925271 3.0
  endloop
endfacet
facet normal 0.0 0.0 1.0
  outer loop
    vertex 82.39180429196922 76.98621592925271 3.0
    vertex 82.71979056870744 76.65822965251448 3.0
    vertex 82.79484692617912 77.51147131649185 3.0
  endloop
endfacet
facet normal 0.0 0.0 1.0
  outer loop
    vertex 82.79484692617912 77.51147131649185 3.0
    vertex 82.71979056870744 76.65822965251448 3.0
    vertex 83.1965464365011 77.27954999607412 3.0
  endloop
endfacet
facet normal 0.0 0.0 1.0
  outer loop
    vertex 82.79484692617912 77.51147131649185 3.0
    vertex 83.1965464365011 77.27954999607412 3.0
    vertex 83.04821011789791 78.12314417014542 3.0
  endloop
endfacet
facet normal 0.0 0.0 1.0
  outer loop
    vertex 83.04821011789791 78.12314417014542 3.0
    vertex 83.1965464365011 77.27954999607412 3.0
    vertex 83.13462758431234 78.77954999607412 3.0
  endloop
endfacet
facet normal 0.0 0.0 1.0
  outer loop
    vertex 78.00039401379449 80.27954999607411 3.0
    vertex 78.14873033239766 79.43595582200281 3.0
    vertex 78.47714988158815 80.90087033963376 3.0
  endloop
endfacet
facet normal 0.0 0.0 1.0
  outer loop
    vertex 78.14873033239766 79.43595582200281 3.0
    vertex 78.00039401379449 80.27954999607411 3.0
    vertex 78.06231286598324 78.77954999607412 3.0
  endloop
endfacet
facet normal 0.0 0.0 1.0
  outer loop
    vertex 78.47714988158815 80.90087033963376 3.0
    vertex 78.14873033239766 79.43595582200281 3.0
    vertex 78.40209352411647 80.04762867565638 3.0
  endloop
endfacet
facet normal 0.0 0.0 1.0
  outer loop
    vertex 78.47714988158815 80.90087033963376 3.0
    vertex 78.40209352411647 80.04762867565638 3.0
    vertex 78.80513615832636 80.57288406289553 3.0
  endloop
endfacet
facet normal 0.0 0.0 1.0
  outer loop
    vertex 78.47714988158815 80.90087033963376 3.0
    vertex 78.80513615832636 80.57288406289553 3.0
    vertex 79.09847022514778 81.37762620742743 3.0
  endloop
endfacet
facet normal 0.0 0.0 1.0
  outer loop
    vertex 79.09847022514778 81.37762620742743 3.0
    vertex 78.80513615832636 80.57288406289553 3.0
    vertex 79.06776385194597 80.7744053800005 3.0
  endloop
endfacet
facet normal 0.0 0.0 1.0
  outer loop
    vertex 79.09847022514778 81.37762620742743 3.0
    vertex 79.06776385194597 80.7744053800005 3.0
    vertex 79.33039154556552 80.97592669710546 3.0
  endloop
endfacet
facet normal 0.0 0.0 1.0
  outer loop
    vertex 79.09847022514778 81.37762620742743 3.0
    vertex 79.33039154556552 80.97592669710546 3.0
    vertex 79.82201308984024 81.67732747494131 3.0
  endloop
endfacet
facet normal 0.0 0.0 1.0
  outer loop
    vertex 79.82201308984024 81.67732747494131 3.0
    vertex 79.33039154556552 80.97592669710546 3.0
    vertex 79.94206439921909 81.22928988882423 3.0
  endloop
endfacet
facet normal 0.0 0.0 1.0
  outer loop
    vertex 79.82201308984024 81.67732747494131 3.0
    vertex 79.94206439921909 81.22928988882423 3.0
    vertex 80.59847022514779 81.77954999607411 3.0
  endloop
endfacet
facet normal 0.0 0.0 1.0
  outer loop
    vertex 80.59847022514779 81.77954999607411 3.0
    vertex 79.94206439921909 81.22928988882423 3.0
    vertex 80.59847022514779 81.31570735523866 3.0
  endloop
endfacet
facet normal 0.0 0.0 1.0
  outer loop
    vertex 80.59847022514779 81.77954999607411 3.0
    vertex 80.59847022514779 81.31570735523866 3.0
    vertex 81.25487605107648 81.22928988882423 3.0
  endloop
endfacet
facet normal 0.0 0.0 1.0
  outer loop
    vertex 80.59847022514779 81.77954999607411 3.0
    vertex 81.25487605107648 81.22928988882423 3.0
    vertex 81.37492736045535 81.67732747494131 3.0
  endloop
endfacet
facet normal 0.0 0.0 1.0
  outer loop
    vertex 81.37492736045535 81.67732747494131 3.0
    vertex 81.25487605107648 81.22928988882423 3.0
    vertex 81.86654890473007 80.97592669710546 3.0
  endloop
endfacet
facet normal 0.0 0.0 1.0
  outer loop
    vertex 81.37492736045535 81.67732747494131 3.0
    vertex 81.86654890473007 80.97592669710546 3.0
    vertex 82.09847022514776 81.37762620742743 3.0
  endloop
endfacet
facet normal 0.0 0.0 1.0
  outer loop
    vertex 82.09847022514776 81.37762620742743 3.0
    vertex 81.86654890473007 80.97592669710546 3.0
    vertex 82.11582588693895 80.78464974117465 3.0
  endloop
endfacet
facet normal 0.0 0.0 1.0
  outer loop
    vertex 82.09847022514776 81.37762620742743 3.0
    vertex 82.11582588693895 80.78464974117465 3.0
    vertex 82.71979056870744 80.90087033963376 3.0
  endloop
endfacet
facet normal 0.0 0.0 1.0
  outer loop
    vertex 82.71979056870744 80.90087033963376 3.0
    vertex 82.11582588693895 80.78464974117465 3.0
    vertex 82.39180429196922 80.57288406289553 3.0
  endloop
endfacet
facet normal 0.0 0.0 1.0
  outer loop
    vertex 82.71979056870744 80.90087033963376 3.0
    vertex 82.39180429196922 80.57288406289553 3.0
    vertex 82.79484692617912 80.0476286756564 3.0
  endloop
endfacet
facet normal 0.0 0.0 1.0
  outer loop
    vertex 82.71979056870744 80.90087033963376 3.0
    vertex 82.79484692617912 80.0476286756564 3.0
    vertex 83.1965464365011 80.27954999607411 3.0
  endloop
endfacet
facet normal 0.0 0.0 1.0
  outer loop
    vertex 83.1965464365011 80.27954999607411 3.0
    vertex 82.79484692617912 80.0476286756564 3.0
    vertex 83.04821011789791 79.43595582200281 3.0
  endloop
endfacet
facet normal 0.0 0.0 1.0
  outer loop
    vertex 83.1965464365011 80.27954999607411 3.0
    vertex 83.04821011789791 79.43595582200281 3.0
    vertex 83.13462758431234 78.77954999607412 3.0
  endloop
endfacet
facet normal 0.0 0.0 1.0
  outer loop
    vertex 83.1965464365011 80.27954999607411 3.0
    vertex 83.13462758431234 78.77954999607412 3.0
    vertex 83.1965464365011 77.27954999607412 3.0
  endloop
endfacet
facet normal 0.0 0.0 1.0
  outer loop
    vertex 83.1965464365011 80.27954999607411 3.0
    vertex 83.1965464365011 77.27954999607412 3.0
    vertex 83.49624770401499 78.00309286076656 3.0
  endloop
endfacet
facet normal 0.0 0.0 1.0
  outer loop
    vertex 83.1965464365011 80.27954999607411 3.0
    vertex 83.49624770401499 78.00309286076656 3.0
    vertex 83.49624770401499 79.55600713138168 3.0
  endloop
endfacet
facet normal 0.0 0.0 1.0
  outer loop
    vertex 83.49624770401499 79.55600713138168 3.0
    vertex 83.49624770401499 78.00309286076656 3.0
    vertex 83.59847022514779 78.77954999607412 3.0
  endloop
endfacet
facet normal 0.0 0.0 1.0
  outer loop
    vertex 82.11582588693895 80.78464974117465 3.0
    vertex 79.33039154556552 80.97592669710546 3.0
    vertex 79.06776385194597 80.7744053800005 3.0
  endloop
endfacet
facet normal 0.0 0.0 1.0
  outer loop
    vertex 79.33039154556552 80.97592669710546 3.0
    vertex 82.11582588693895 80.78464974117465 3.0
    vertex 79.94206439921909 81.22928988882423 3.0
  endloop
endfacet
facet normal 0.0 0.0 1.0
  outer loop
    vertex 79.94206439921909 81.22928988882423 3.0
    vertex 82.11582588693895 80.78464974117465 3.0
    vertex 80.59847022514779 81.31570735523866 3.0
  endloop
endfacet
facet normal 0.0 0.0 1.0
  outer loop
    vertex 80.59847022514779 81.31570735523866 3.0
    vertex 82.11582588693895 80.78464974117465 3.0
    vertex 81.25487605107648 81.22928988882423 3.0
  endloop
endfacet
facet normal 0.0 0.0 1.0
  outer loop
    vertex 81.25487605107648 81.22928988882423 3.0
    vertex 82.11582588693895 80.78464974117465 3.0
    vertex 81.86654890473007 80.97592669710546 3.0
  endloop
endfacet
facet normal -0.6087614290087396 0.7933533402912205 0.0
  outer loop
    vertex 82.11582588693899 76.77445025097362 3.0
    vertex 82.39180429196922 76.98621592925271 0.0
    vertex 82.11582588693899 76.77445025097362 0.0
  endloop
endfacet
facet normal -0.6087614290087396 0.7933533402912205 0.0
  outer loop
    vertex 82.39180429196922 76.98621592925271 0.0
    vertex 82.11582588693899 76.77445025097362 3.0
    vertex 82.39180429196922 76.98621592925271 3.0
  endloop
endfacet
facet normal 0.6087614290086807 -0.7933533402912658 0.0
  outer loop
    vertex 79.06776385194597 80.7744053800005 3.0
    vertex 78.80513615832636 80.57288406289553 0.0
    vertex 79.06776385194597 80.7744053800005 0.0
  endloop
endfacet
facet normal 0.6087614290086807 -0.7933533402912658 0.0
  outer loop
    vertex 78.80513615832636 80.57288406289553 0.0
    vertex 79.06776385194597 80.7744053800005 3.0
    vertex 78.80513615832636 80.57288406289553 3.0
  endloop
endfacet
facet normal -0.9238795325112683 -0.3826834323651343 -0.0
  outer loop
    vertex 82.79484692617912 80.0476286756564 3.0
    vertex 83.04821011789791 79.43595582200281 0.0
    vertex 83.04821011789791 79.43595582200281 3.0
  endloop
endfacet
facet normal -0.9238795325112683 -0.3826834323651343 -0.0
  outer loop
    vertex 83.04821011789791 79.43595582200281 0.0
    vertex 82.79484692617912 80.0476286756564 3.0
    vertex 82.79484692617912 80.0476286756564 0.0
  endloop
endfacet
facet normal 0.991444861373812 -0.13052619222004025 0.0
  outer loop
    vertex 78.14873033239766 79.43595582200281 0.0
    vertex 78.06231286598324 78.77954999607412 3.0
    vertex 78.06231286598324 78.77954999607412 0.0
  endloop
endfacet
facet normal 0.991444861373812 -0.13052619222004025 0.0
  outer loop
    vertex 78.06231286598324 78.77954999607412 3.0
    vertex 78.14873033239766 79.43595582200281 0.0
    vertex 78.14873033239766 79.43595582200281 3.0
  endloop
endfacet
facet normal 0.991444861373812 0.13052619222004025 0.0
  outer loop
    vertex 78.06231286598324 78.77954999607412 0.0
    vertex 78.14873033239766 78.12314417014542 3.0
    vertex 78.14873033239766 78.12314417014542 0.0
  endloop
endfacet
facet normal 0.991444861373812 0.13052619222004025 0.0
  outer loop
    vertex 78.14873033239766 78.12314417014542 3.0
    vertex 78.06231286598324 78.77954999607412 0.0
    vertex 78.06231286598324 78.77954999607412 3.0
  endloop
endfacet
facet normal -0.991444861373812 -0.13052619222004025 -0.0
  outer loop
    vertex 83.04821011789791 79.43595582200281 3.0
    vertex 83.13462758431234 78.77954999607412 0.0
    vertex 83.13462758431234 78.77954999607412 3.0
  endloop
endfacet
facet normal -0.991444861373812 -0.13052619222004025 -0.0
  outer loop
    vertex 83.13462758431234 78.77954999607412 0.0
    vertex 83.04821011789791 79.43595582200281 3.0
    vertex 83.04821011789791 79.43595582200281 0.0
  endloop
endfacet
facet normal -0.7933533402912609 -0.6087614290086871 -0.0
  outer loop
    vertex 82.39180429196922 80.57288406289553 3.0
    vertex 82.79484692617912 80.0476286756564 0.0
    vertex 82.79484692617912 80.0476286756564 3.0
  endloop
endfacet
facet normal -0.7933533402912609 -0.6087614290086871 -0.0
  outer loop
    vertex 82.79484692617912 80.0476286756564 0.0
    vertex 82.39180429196922 80.57288406289553 3.0
    vertex 82.39180429196922 80.57288406289553 0.0
  endloop
endfacet
facet normal -1.1819576341696739e-33 3.989107015322649e-33 1.0
  outer loop
    vertex 23.9359201721013 66.39587439123056 3.0
    vertex 25.335424633580445 96.38624735657721 3.0
    vertex 22.661518650608134 81.48318500277311 3.0
  endloop
endfacet
facet normal -1.1819576341696739e-33 3.989107015322649e-33 1.0
  outer loop
    vertex 25.335424633580445 96.38624735657721 3.0
    vertex 23.9359201721013 66.39587439123056 3.0
    vertex 29.071780840418132 52.15249080716655 3.0
  endloop
endfacet
facet normal -1.1819576341696739e-33 3.989107015322649e-33 1.0
  outer loop
    vertex 25.335424633580445 96.38624735657721 3.0
    vertex 29.071780840418132 52.15249080716655 3.0
    vertex 31.775415847117152 110.08944238170619 3.0
  endloop
endfacet
facet normal -1.1819576341696739e-33 3.989107015322649e-33 1.0
  outer loop
    vertex 31.775415847117152 110.08944238170619 3.0
    vertex 29.071780840418132 52.15249080716655 3.0
    vertex 37.71910023842403 39.72369730353072 3.0
  endloop
endfacet
facet normal -1.1819576341696739e-33 3.989107015322649e-33 1.0
  outer loop
    vertex 31.775415847117152 110.08944238170619 3.0
    vertex 37.71910023842403 39.72369730353072 3.0
    vertex 41.54261753260439 121.65891998279791 3.0
  endloop
endfacet
facet normal -1.1819576341696739e-33 3.989107015322649e-33 1.0
  outer loop
    vertex 41.54261753260439 121.65891998279791 3.0
    vertex 37.71910023842403 39.72369730353072 3.0
    vertex 49.28857783951572 29.95649561804347 3.0
  endloop
endfacet
facet normal -1.1819576341696739e-33 3.989107015322649e-33 1.0
  outer loop
    vertex 41.54261753260439 121.65891998279791 3.0
    vertex 49.28857783951572 29.95649561804347 3.0
    vertex 53.97141103624021 130.30623938080376 3.0
  endloop
endfacet
facet normal -1.1819576341696739e-33 3.989107015322649e-33 1.0
  outer loop
    vertex 53.97141103624021 130.30623938080376 3.0
    vertex 49.28857783951572 29.95649561804347 3.0
    vertex 62.9917728646447 23.516504404506772 3.0
  endloop
endfacet
facet normal -1.1819576341696739e-33 3.989107015322649e-33 1.0
  outer loop
    vertex 53.97141103624021 130.30623938080376 3.0
    vertex 62.9917728646447 23.516504404506772 3.0
    vertex 68.21479462030429 135.44210004912065 3.0
  endloop
endfacet
facet normal -1.1819576341696739e-33 3.989107015322649e-33 1.0
  outer loop
    vertex 68.21479462030429 135.44210004912065 3.0
    vertex 62.9917728646447 23.516504404506772 3.0
    vertex 77.89483521844878 20.842598421534483 3.0
  endloop
endfacet
facet normal -1.1819576341696739e-33 3.989107015322649e-33 1.0
  outer loop
    vertex 68.21479462030429 135.44210004912065 3.0
    vertex 77.89483521844878 20.842598421534483 3.0
    vertex 77.59847022514779 78.77954999607412 3.0
  endloop
endfacet
facet normal -1.1819576341696739e-33 3.989107015322649e-33 1.0
  outer loop
    vertex 77.59847022514779 78.77954999607412 3.0
    vertex 77.89483521844878 20.842598421534483 3.0
    vertex 77.70069274628058 78.00309286076656 3.0
  endloop
endfacet
facet normal -1.1819576341696739e-33 3.989107015322649e-33 1.0
  outer loop
    vertex 77.70069274628058 78.00309286076656 3.0
    vertex 77.89483521844878 20.842598421534483 3.0
    vertex 78.00039401379449 77.27954999607412 3.0
  endloop
endfacet
facet normal -1.1819576341696739e-33 3.989107015322649e-33 1.0
  outer loop
    vertex 78.00039401379449 77.27954999607412 3.0
    vertex 77.89483521844878 20.842598421534483 3.0
    vertex 92.98214582999134 22.116999943027604 3.0
  endloop
endfacet
facet normal -1.1819576341696739e-33 3.989107015322649e-33 1.0
  outer loop
    vertex 78.00039401379449 77.27954999607412 3.0
    vertex 92.98214582999134 22.116999943027604 3.0
    vertex 78.47714988158815 76.65822965251448 3.0
  endloop
endfacet
facet normal -1.1819576341696739e-33 3.989107015322649e-33 1.0
  outer loop
    vertex 78.47714988158815 76.65822965251448 3.0
    vertex 92.98214582999134 22.116999943027604 3.0
    vertex 79.09847022514782 76.18147378472081 3.0
  endloop
endfacet
facet normal -1.1819576341696739e-33 3.989107015322649e-33 1.0
  outer loop
    vertex 79.09847022514782 76.18147378472081 3.0
    vertex 92.98214582999134 22.116999943027604 3.0
    vertex 79.82201308984024 75.88177251720691 3.0
  endloop
endfacet
facet normal -1.1819576341696739e-33 3.989107015322649e-33 1.0
  outer loop
    vertex 79.82201308984024 75.88177251720691 3.0
    vertex 92.98214582999134 22.116999943027604 3.0
    vertex 80.59847022514779 75.77954999607412 3.0
  endloop
endfacet
facet normal -1.1819576341696739e-33 3.989107015322649e-33 1.0
  outer loop
    vertex 80.59847022514779 75.77954999607412 3.0
    vertex 92.98214582999134 22.116999943027604 3.0
    vertex 81.37492736045535 75.88177251720693 3.0
  endloop
endfacet
facet normal -1.1819576341696739e-33 3.989107015322649e-33 1.0
  outer loop
    vertex 81.37492736045535 75.88177251720693 3.0
    vertex 92.98214582999134 22.116999943027604 3.0
    vertex 82.0984702251478 76.18147378472081 3.0
  endloop
endfacet
facet normal -1.1819576341696739e-33 3.989107015322649e-33 1.0
  outer loop
    vertex 82.0984702251478 76.18147378472081 3.0
    vertex 92.98214582999134 22.116999943027604 3.0
    vertex 82.71979056870744 76.65822965251448 3.0
  endloop
endfacet
facet normal -1.1819576341696739e-33 3.989107015322649e-33 1.0
  outer loop
    vertex 82.71979056870744 76.65822965251448 3.0
    vertex 92.98214582999134 22.116999943027604 3.0
    vertex 83.1965464365011 77.27954999607412 3.0
  endloop
endfacet
facet normal -1.1819576341696739e-33 3.989107015322649e-33 1.0
  outer loop
    vertex 83.1965464365011 77.27954999607412 3.0
    vertex 92.98214582999134 22.116999943027604 3.0
    vertex 83.49624770401499 78.00309286076656 3.0
  endloop
endfacet
facet normal -1.1819576341696739e-33 3.989107015322649e-33 1.0
  outer loop
    vertex 83.49624770401499 78.00309286076656 3.0
    vertex 92.98214582999134 22.116999943027604 3.0
    vertex 83.59847022514779 78.77954999607412 3.0
  endloop
endfacet
facet normal -1.1819576341696739e-33 3.989107015322649e-33 1.0
  outer loop
    vertex 77.59847022514779 78.77954999607412 3.0
    vertex 83.30210523184681 136.71650157061376 3.0
    vertex 68.21479462030429 135.44210004912065 3.0
  endloop
endfacet
facet normal -1.1819576341696739e-33 3.989107015322649e-33 1.0
  outer loop
    vertex 83.30210523184681 136.71650157061376 3.0
    vertex 77.59847022514779 78.77954999607412 3.0
    vertex 77.70069274628058 79.55600713138168 3.0
  endloop
endfacet
facet normal -1.1819576341696739e-33 3.989107015322649e-33 1.0
  outer loop
    vertex 83.30210523184681 136.71650157061376 3.0
    vertex 77.70069274628058 79.55600713138168 3.0
    vertex 78.00039401379449 80.27954999607411 3.0
  endloop
endfacet
facet normal -1.1819576341696739e-33 3.989107015322649e-33 1.0
  outer loop
    vertex 83.30210523184681 136.71650157061376 3.0
    vertex 78.00039401379449 80.27954999607411 3.0
    vertex 78.47714988158815 80.90087033963376 3.0
  endloop
endfacet
facet normal -1.1819576341696739e-33 3.989107015322649e-33 1.0
  outer loop
    vertex 83.30210523184681 136.71650157061376 3.0
    vertex 78.47714988158815 80.90087033963376 3.0
    vertex 79.09847022514778 81.37762620742743 3.0
  endloop
endfacet
facet normal -1.1819576341696739e-33 3.989107015322649e-33 1.0
  outer loop
    vertex 83.30210523184681 136.71650157061376 3.0
    vertex 79.09847022514778 81.37762620742743 3.0
    vertex 79.82201308984024 81.67732747494131 3.0
  endloop
endfacet
facet normal -1.1819576341696739e-33 3.989107015322649e-33 1.0
  outer loop
    vertex 83.30210523184681 136.71650157061376 3.0
    vertex 79.82201308984024 81.67732747494131 3.0
    vertex 80.59847022514779 81.77954999607411 3.0
  endloop
endfacet
facet normal -1.1819576341696739e-33 3.989107015322649e-33 1.0
  outer loop
    vertex 83.30210523184681 136.71650157061376 3.0
    vertex 80.59847022514779 81.77954999607411 3.0
    vertex 81.37492736045535 81.67732747494131 3.0
  endloop
endfacet
facet normal -1.1819576341696739e-33 3.989107015322649e-33 1.0
  outer loop
    vertex 83.30210523184681 136.71650157061376 3.0
    vertex 81.37492736045535 81.67732747494131 3.0
    vertex 82.09847022514776 81.37762620742743 3.0
  endloop
endfacet
facet normal -1.1819576341696739e-33 3.989107015322649e-33 1.0
  outer loop
    vertex 83.30210523184681 136.71650157061376 3.0
    vertex 82.09847022514776 81.37762620742743 3.0
    vertex 82.71979056870744 80.90087033963376 3.0
  endloop
endfacet
facet normal -1.1819576341696739e-33 3.989107015322649e-33 1.0
  outer loop
    vertex 83.30210523184681 136.71650157061376 3.0
    vertex 82.71979056870744 80.90087033963376 3.0
    vertex 83.1965464365011 80.27954999607411 3.0
  endloop
endfacet
facet normal -1.1819576341696739e-33 3.989107015322649e-33 1.0
  outer loop
    vertex 83.30210523184681 136.71650157061376 3.0
    vertex 83.1965464365011 80.27954999607411 3.0
    vertex 83.49624770401499 79.55600713138168 3.0
  endloop
endfacet
facet normal -1.1819576341696739e-33 3.989107015322649e-33 1.0
  outer loop
    vertex 83.30210523184681 136.71650157061376 3.0
    vertex 83.49624770401499 79.55600713138168 3.0
    vertex 98.20516758565093 134.04259558764144 3.0
  endloop
endfacet
facet normal -1.1819576341696739e-33 3.989107015322649e-33 1.0
  outer loop
    vertex 98.20516758565093 134.04259558764144 3.0
    vertex 83.49624770401499 79.55600713138168 3.0
    vertex 83.59847022514779 78.77954999607412 3.0
  endloop
endfacet
facet normal -1.1819576341696739e-33 3.989107015322649e-33 1.0
  outer loop
    vertex 98.20516758565093 134.04259558764144 3.0
    vertex 83.59847022514779 78.77954999607412 3.0
    vertex 92.98214582999134 22.116999943027604 3.0
  endloop
endfacet
facet normal -1.1819576341696739e-33 3.989107015322649e-33 1.0
  outer loop
    vertex 98.20516758565093 134.04259558764144 3.0
    vertex 92.98214582999134 22.116999943027604 3.0
    vertex 107.22552941405537 27.25286061134447 3.0
  endloop
endfacet
facet normal -1.1819576341696739e-33 3.989107015322649e-33 1.0
  outer loop
    vertex 98.20516758565093 134.04259558764144 3.0
    vertex 107.22552941405537 27.25286061134447 3.0
    vertex 111.90836261077988 127.60260437410474 3.0
  endloop
endfacet
facet normal -1.1819576341696739e-33 3.989107015322649e-33 1.0
  outer loop
    vertex 111.90836261077988 127.60260437410474 3.0
    vertex 107.22552941405537 27.25286061134447 3.0
    vertex 119.65432291769119 35.900180009350315 3.0
  endloop
endfacet
facet normal -1.1819576341696739e-33 3.989107015322649e-33 1.0
  outer loop
    vertex 111.90836261077988 127.60260437410474 3.0
    vertex 119.65432291769119 35.900180009350315 3.0
    vertex 123.4778402118716 117.8354026886175 3.0
  endloop
endfacet
facet normal -1.1819576341696739e-33 3.989107015322649e-33 1.0
  outer loop
    vertex 123.4778402118716 117.8354026886175 3.0
    vertex 119.65432291769119 35.900180009350315 3.0
    vertex 129.42152460317843 47.469657610442056 3.0
  endloop
endfacet
facet normal -1.1819576341696739e-33 3.989107015322649e-33 1.0
  outer loop
    vertex 123.4778402118716 117.8354026886175 3.0
    vertex 129.42152460317843 47.469657610442056 3.0
    vertex 132.12515960987744 105.40660918498169 3.0
  endloop
endfacet
facet normal -1.1819576341696739e-33 3.989107015322649e-33 1.0
  outer loop
    vertex 132.12515960987744 105.40660918498169 3.0
    vertex 129.42152460317843 47.469657610442056 3.0
    vertex 135.86151581671513 61.17285263557098 3.0
  endloop
endfacet
facet normal -1.1819576341696739e-33 3.989107015322649e-33 1.0
  outer loop
    vertex 132.12515960987744 105.40660918498169 3.0
    vertex 135.86151581671513 61.17285263557098 3.0
    vertex 137.26102027819428 91.16322560091764 3.0
  endloop
endfacet
facet normal -1.1819576341696739e-33 3.989107015322649e-33 1.0
  outer loop
    vertex 137.26102027819428 91.16322560091764 3.0
    vertex 135.86151581671513 61.17285263557098 3.0
    vertex 138.53542179968744 76.07591498937511 3.0
  endloop
endfacet
facet normal 0.9238795325112683 0.3826834323651343 0.0
  outer loop
    vertex 78.14873033239766 78.12314417014542 0.0
    vertex 78.40209352411647 77.51147131649185 3.0
    vertex 78.40209352411647 77.51147131649185 0.0
  endloop
endfacet
facet normal 0.9238795325112683 0.3826834323651343 0.0
  outer loop
    vertex 78.40209352411647 77.51147131649185 3.0
    vertex 78.14873033239766 78.12314417014542 0.0
    vertex 78.14873033239766 78.12314417014542 3.0
  endloop
endfacet
facet normal 0.0 0.0 1.0
  outer loop
    vertex 22.642920647803695 63.250407289922876 42.999999999999964
    vertex 22.642920647803695 94.30869270222537 42.999999999999964
    vertex 20.59847022514781 78.77954999607412 42.999999999999964
  endloop
endfacet
facet normal 0.0 0.0 1.0
  outer loop
    vertex 22.642920647803695 94.30869270222537 42.999999999999964
    vertex 22.642920647803695 63.250407289922876 42.999999999999964
    vertex 22.661518650608134 81.48318500277311 42.999999999999964
  endloop
endfacet
facet normal 0.0 0.0 1.0
  outer loop
    vertex 22.661518650608134 81.48318500277311 42.999999999999964
    vertex 22.642920647803695 63.250407289922876 42.999999999999964
    vertex 23.9359201721013 66.39587439123056 42.999999999999964
  endloop
endfacet
facet normal 0.0 0.0 1.0
  outer loop
    vertex 23.9359201721013 66.39587439123056 42.999999999999964
    vertex 22.642920647803695 63.250407289922876 42.999999999999964
    vertex 28.636945998081465 48.77954999607413 42.999999999999964
  endloop
endfacet
facet normal 0.0 0.0 1.0
  outer loop
    vertex 23.9359201721013 66.39587439123056 42.999999999999964
    vertex 28.636945998081465 48.77954999607413 42.999999999999964
    vertex 29.071780840418132 52.15249080716655 42.999999999999964
  endloop
endfacet
facet normal 0.0 0.0 1.0
  outer loop
    vertex 29.071780840418132 52.15249080716655 42.999999999999964
    vertex 28.636945998081465 48.77954999607413 42.999999999999964
    vertex 38.172063353954925 36.35314312488127 42.999999999999964
  endloop
endfacet
facet normal 0.0 0.0 1.0
  outer loop
    vertex 29.071780840418132 52.15249080716655 42.999999999999964
    vertex 38.172063353954925 36.35314312488127 42.999999999999964
    vertex 37.71910023842403 39.72369730353072 42.999999999999964
  endloop
endfacet
facet normal 0.0 0.0 1.0
  outer loop
    vertex 37.71910023842403 39.72369730353072 42.999999999999964
    vertex 38.172063353954925 36.35314312488127 42.999999999999964
    vertex 49.28857783951572 29.95649561804347 42.999999999999964
  endloop
endfacet
facet normal 0.0 0.0 1.0
  outer loop
    vertex 49.28857783951572 29.95649561804347 42.999999999999964
    vertex 38.172063353954925 36.35314312488127 42.999999999999964
    vertex 50.59847022514776 26.818025769007814 42.999999999999964
  endloop
endfacet
facet normal 0.0 0.0 1.0
  outer loop
    vertex 49.28857783951572 29.95649561804347 42.999999999999964
    vertex 50.59847022514776 26.818025769007814 42.999999999999964
    vertex 62.9917728646447 23.516504404506772 42.999999999999964
  endloop
endfacet
facet normal 0.0 0.0 1.0
  outer loop
    vertex 62.9917728646447 23.516504404506772 42.999999999999964
    vertex 50.59847022514776 26.818025769007814 42.999999999999964
    vertex 65.06932751899652 20.824000418730034 42.999999999999964
  endloop
endfacet
facet normal 0.0 0.0 1.0
  outer loop
    vertex 62.9917728646447 23.516504404506772 42.999999999999964
    vertex 65.06932751899652 20.824000418730034 42.999999999999964
    vertex 77.89483521844878 20.842598421534483 42.999999999999964
  endloop
endfacet
facet normal 0.0 0.0 1.0
  outer loop
    vertex 77.89483521844878 20.842598421534483 42.999999999999964
    vertex 65.06932751899652 20.824000418730034 42.999999999999964
    vertex 80.59847022514779 18.779549996074127 42.999999999999964
  endloop
endfacet
facet normal 0.0 0.0 1.0
  outer loop
    vertex 77.89483521844878 20.842598421534483 42.999999999999964
    vertex 80.59847022514779 18.779549996074127 42.999999999999964
    vertex 92.98214582999134 22.116999943027604 42.999999999999964
  endloop
endfacet
facet normal 0.0 0.0 1.0
  outer loop
    vertex 92.98214582999134 22.116999943027604 42.999999999999964
    vertex 80.59847022514779 18.779549996074127 42.999999999999964
    vertex 96.12761293129903 20.82400041873002 42.999999999999964
  endloop
endfacet
facet normal 0.0 0.0 1.0
  outer loop
    vertex 92.98214582999134 22.116999943027604 42.999999999999964
    vertex 96.12761293129903 20.82400041873002 42.999999999999964
    vertex 107.22552941405537 27.25286061134447 42.999999999999964
  endloop
endfacet
facet normal 0.0 0.0 1.0
  outer loop
    vertex 107.22552941405537 27.25286061134447 42.999999999999964
    vertex 96.12761293129903 20.82400041873002 42.999999999999964
    vertex 110.59847022514778 26.818025769007804 42.999999999999964
  endloop
endfacet
facet normal 0.0 0.0 1.0
  outer loop
    vertex 107.22552941405537 27.25286061134447 42.999999999999964
    vertex 110.59847022514778 26.818025769007804 42.999999999999964
    vertex 119.65432291769119 35.900180009350315 42.999999999999964
  endloop
endfacet
facet normal 0.0 0.0 1.0
  outer loop
    vertex 119.65432291769119 35.900180009350315 42.999999999999964
    vertex 110.59847022514778 26.818025769007804 42.999999999999964
    vertex 123.02487709634062 36.35314312488125 42.999999999999964
  endloop
endfacet
facet normal 0.0 0.0 1.0
  outer loop
    vertex 119.65432291769119 35.900180009350315 42.999999999999964
    vertex 123.02487709634062 36.35314312488125 42.999999999999964
    vertex 129.42152460317843 47.469657610442056 42.999999999999964
  endloop
endfacet
facet normal 0.0 0.0 1.0
  outer loop
    vertex 129.42152460317843 47.469657610442056 42.999999999999964
    vertex 123.02487709634062 36.35314312488125 42.999999999999964
    vertex 132.5599944522141 48.779549996074095 42.999999999999964
  endloop
endfacet
facet normal 0.0 0.0 1.0
  outer loop
    vertex 129.42152460317843 47.469657610442056 42.999999999999964
    vertex 132.5599944522141 48.779549996074095 42.999999999999964
    vertex 135.86151581671513 61.17285263557098 42.999999999999964
  endloop
endfacet
facet normal 0.0 0.0 1.0
  outer loop
    vertex 135.86151581671513 61.17285263557098 42.999999999999964
    vertex 132.5599944522141 48.779549996074095 42.999999999999964
    vertex 138.55401980249184 63.25040728992283 42.999999999999964
  endloop
endfacet
facet normal 0.0 0.0 1.0
  outer loop
    vertex 135.86151581671513 61.17285263557098 42.999999999999964
    vertex 138.55401980249184 63.25040728992283 42.999999999999964
    vertex 138.53542179968744 76.07591498937511 42.999999999999964
  endloop
endfacet
facet normal 0.0 0.0 1.0
  outer loop
    vertex 22.642920647803695 94.30869270222537 42.999999999999964
    vertex 25.335424633580445 96.38624735657721 42.999999999999964
    vertex 28.636945998081465 108.77954999607412 42.999999999999964
  endloop
endfacet
facet normal 0.0 0.0 1.0
  outer loop
    vertex 25.335424633580445 96.38624735657721 42.999999999999964
    vertex 22.642920647803695 94.30869270222537 42.999999999999964
    vertex 22.661518650608134 81.48318500277311 42.999999999999964
  endloop
endfacet
facet normal 0.0 0.0 1.0
  outer loop
    vertex 28.636945998081465 108.77954999607412 42.999999999999964
    vertex 25.335424633580445 96.38624735657721 42.999999999999964
    vertex 31.775415847117152 110.08944238170619 42.999999999999964
  endloop
endfacet
facet normal 0.0 0.0 1.0
  outer loop
    vertex 28.636945998081465 108.77954999607412 42.999999999999964
    vertex 31.775415847117152 110.08944238170619 42.999999999999964
    vertex 38.172063353954925 121.20595686726698 42.999999999999964
  endloop
endfacet
facet normal 0.0 0.0 1.0
  outer loop
    vertex 38.172063353954925 121.20595686726698 42.999999999999964
    vertex 31.775415847117152 110.08944238170619 42.999999999999964
    vertex 41.54261753260439 121.65891998279791 42.999999999999964
  endloop
endfacet
facet normal 0.0 0.0 1.0
  outer loop
    vertex 38.172063353954925 121.20595686726698 42.999999999999964
    vertex 41.54261753260439 121.65891998279791 42.999999999999964
    vertex 50.5984702251478 130.74107422314043 42.999999999999964
  endloop
endfacet
facet normal 0.0 0.0 1.0
  outer loop
    vertex 50.5984702251478 130.74107422314043 42.999999999999964
    vertex 41.54261753260439 121.65891998279791 42.999999999999964
    vertex 53.97141103624021 130.30623938080376 42.999999999999964
  endloop
endfacet
facet normal 0.0 0.0 1.0
  outer loop
    vertex 50.5984702251478 130.74107422314043 42.999999999999964
    vertex 53.97141103624021 130.30623938080376 42.999999999999964
    vertex 65.06932751899656 136.7350995734182 42.999999999999964
  endloop
endfacet
facet normal 0.0 0.0 1.0
  outer loop
    vertex 65.06932751899656 136.7350995734182 42.999999999999964
    vertex 53.97141103624021 130.30623938080376 42.999999999999964
    vertex 68.21479462030429 135.44210004912065 42.999999999999964
  endloop
endfacet
facet normal 0.0 0.0 1.0
  outer loop
    vertex 65.06932751899656 136.7350995734182 42.999999999999964
    vertex 68.21479462030429 135.44210004912065 42.999999999999964
    vertex 80.59847022514779 138.7795499960741 42.999999999999964
  endloop
endfacet
facet normal 0.0 0.0 1.0
  outer loop
    vertex 80.59847022514779 138.7795499960741 42.999999999999964
    vertex 68.21479462030429 135.44210004912065 42.999999999999964
    vertex 83.30210523184681 136.71650157061376 42.999999999999964
  endloop
endfacet
facet normal 0.0 0.0 1.0
  outer loop
    vertex 80.59847022514779 138.7795499960741 42.999999999999964
    vertex 83.30210523184681 136.71650157061376 42.999999999999964
    vertex 96.12761293129907 136.7350995734182 42.999999999999964
  endloop
endfacet
facet normal 0.0 0.0 1.0
  outer loop
    vertex 96.12761293129907 136.7350995734182 42.999999999999964
    vertex 83.30210523184681 136.71650157061376 42.999999999999964
    vertex 98.20516758565093 134.04259558764144 42.999999999999964
  endloop
endfacet
facet normal 0.0 0.0 1.0
  outer loop
    vertex 96.12761293129907 136.7350995734182 42.999999999999964
    vertex 98.20516758565093 134.04259558764144 42.999999999999964
    vertex 110.59847022514782 130.7410742231404 42.999999999999964
  endloop
endfacet
facet normal 0.0 0.0 1.0
  outer loop
    vertex 110.59847022514782 130.7410742231404 42.999999999999964
    vertex 98.20516758565093 134.04259558764144 42.999999999999964
    vertex 111.90836261077988 127.60260437410474 42.999999999999964
  endloop
endfacet
facet normal 0.0 0.0 1.0
  outer loop
    vertex 110.59847022514782 130.7410742231404 42.999999999999964
    vertex 111.90836261077988 127.60260437410474 42.999999999999964
    vertex 123.02487709634066 121.20595686726695 42.999999999999964
  endloop
endfacet
facet normal 0.0 0.0 1.0
  outer loop
    vertex 123.02487709634066 121.20595686726695 42.999999999999964
    vertex 111.90836261077988 127.60260437410474 42.999999999999964
    vertex 123.4778402118716 117.8354026886175 42.999999999999964
  endloop
endfacet
facet normal 0.0 0.0 1.0
  outer loop
    vertex 123.02487709634066 121.20595686726695 42.999999999999964
    vertex 123.4778402118716 117.8354026886175 42.999999999999964
    vertex 132.5599944522141 108.77954999607408 42.999999999999964
  endloop
endfacet
facet normal 0.0 0.0 1.0
  outer loop
    vertex 132.5599944522141 108.77954999607408 42.999999999999964
    vertex 123.4778402118716 117.8354026886175 42.999999999999964
    vertex 132.12515960987744 105.40660918498169 42.999999999999964
  endloop
endfacet
facet normal 0.0 0.0 1.0
  outer loop
    vertex 132.5599944522141 108.77954999607408 42.999999999999964
    vertex 132.12515960987744 105.40660918498169 42.999999999999964
    vertex 137.26102027819428 91.16322560091764 42.999999999999964
  endloop
endfacet
facet normal 0.0 0.0 1.0
  outer loop
    vertex 132.5599944522141 108.77954999607408 42.999999999999964
    vertex 137.26102027819428 91.16322560091764 42.999999999999964
    vertex 138.5540198024919 94.30869270222534 42.999999999999964
  endloop
endfacet
facet normal 0.0 0.0 1.0
  outer loop
    vertex 138.5540198024919 94.30869270222534 42.999999999999964
    vertex 137.26102027819428 91.16322560091764 42.999999999999964
    vertex 138.53542179968744 76.07591498937511 42.999999999999964
  endloop
endfacet
facet normal 0.0 0.0 1.0
  outer loop
    vertex 138.5540198024919 94.30869270222534 42.999999999999964
    vertex 138.53542179968744 76.07591498937511 42.999999999999964
    vertex 138.55401980249184 63.25040728992283 42.999999999999964
  endloop
endfacet
facet normal 0.0 0.0 1.0
  outer loop
    vertex 138.5540198024919 94.30869270222534 42.999999999999964
    vertex 138.55401980249184 63.25040728992283 42.999999999999964
    vertex 140.59847022514776 78.77954999607411 42.999999999999964
  endloop
endfacet
facet normal 0.00336092349735349 0.9999943520806731 0.0
  outer loop
    vertex 79.06776385194591 76.78469461214775 3.0
    vertex 82.11582588693899 76.77445025097362 0.0
    vertex 79.06776385194591 76.78469461214775 0.0
  endloop
endfacet
facet normal 0.00336092349735349 0.9999943520806731 0.0
  outer loop
    vertex 82.11582588693899 76.77445025097362 0.0
    vertex 79.06776385194591 76.78469461214775 3.0
    vertex 82.11582588693899 76.77445025097362 3.0
  endloop
endfacet
facet normal -0.991444861373812 0.13052619222004025 0.0
  outer loop
    vertex 83.13462758431234 78.77954999607412 3.0
    vertex 83.04821011789791 78.12314417014542 0.0
    vertex 83.04821011789791 78.12314417014542 3.0
  endloop
endfacet
facet normal -0.991444861373812 0.13052619222004025 0.0
  outer loop
    vertex 83.04821011789791 78.12314417014542 0.0
    vertex 83.13462758431234 78.77954999607412 3.0
    vertex 83.13462758431234 78.77954999607412 0.0
  endloop
endfacet
facet normal 0.7933533402912338 -0.6087614290087224 0.0
  outer loop
    vertex 132.5599944522141 48.779549996074095 0.0
    vertex 123.02487709634062 36.35314312488125 42.999999999999964
    vertex 123.02487709634062 36.35314312488125 0.0
  endloop
endfacet
facet normal 0.7933533402912338 -0.6087614290087224 0.0
  outer loop
    vertex 123.02487709634062 36.35314312488125 42.999999999999964
    vertex 132.5599944522141 48.779549996074095 0.0
    vertex 132.5599944522141 48.779549996074095 42.999999999999964
  endloop
endfacet
facet normal -0.9238795325112659 0.38268343236514035 0.0
  outer loop
    vertex 83.04821011789791 78.12314417014542 3.0
    vertex 82.79484692617912 77.51147131649185 0.0
    vertex 82.79484692617912 77.51147131649185 3.0
  endloop
endfacet
facet normal -0.9238795325112659 0.38268343236514035 0.0
  outer loop
    vertex 82.79484692617912 77.51147131649185 0.0
    vertex 83.04821011789791 78.12314417014542 3.0
    vertex 83.04821011789791 78.12314417014542 0.0
  endloop
endfacet
facet normal -0.7933533402912671 0.6087614290086789 0.0
  outer loop
    vertex 82.79484692617912 77.51147131649185 3.0
    vertex 82.39180429196922 76.98621592925271 0.0
    vertex 82.39180429196922 76.98621592925271 3.0
  endloop
endfacet
facet normal -0.7933533402912671 0.6087614290086789 0.0
  outer loop
    vertex 82.39180429196922 76.98621592925271 0.0
    vertex 82.79484692617912 77.51147131649185 3.0
    vertex 82.79484692617912 77.51147131649185 0.0
  endloop
endfacet
facet normal 0.9238795325112659 -0.38268343236514035 0.0
  outer loop
    vertex 78.40209352411647 80.04762867565638 0.0
    vertex 78.14873033239766 79.43595582200281 3.0
    vertex 78.14873033239766 79.43595582200281 0.0
  endloop
endfacet
facet normal 0.9238795325112659 -0.38268343236514035 0.0
  outer loop
    vertex 78.14873033239766 79.43595582200281 3.0
    vertex 78.40209352411647 80.04762867565638 0.0
    vertex 78.40209352411647 80.04762867565638 3.0
  endloop
endfacet
facet normal 0.6087614290087465 0.7933533402912153 0.0
  outer loop
    vertex 78.80513615832636 76.98621592925271 3.0
    vertex 79.06776385194591 76.78469461214775 0.0
    vertex 78.80513615832636 76.98621592925271 0.0
  endloop
endfacet
facet normal 0.6087614290087465 0.7933533402912153 0.0
  outer loop
    vertex 79.06776385194591 76.78469461214775 0.0
    vertex 78.80513615832636 76.98621592925271 3.0
    vertex 79.06776385194591 76.78469461214775 3.0
  endloop
endfacet
endsolid dice-IRL-webcam-cup
